<svg width="24" height="24" viewBox="0 0 24 24" fill="none" xmlns="http://www.w3.org/2000/svg">
<path d="M11.9876 1.99634C13.4351 1.99634 14.7878 2.40321 15.9353 3.11082C15.5934 3.47609 15.329 3.91455 15.1682 4.40009C14.2457 3.82641 13.1554 3.49593 11.9876 3.49593C8.66297 3.49593 5.97997 6.16946 5.97949 9.49431V13.9027L4.63369 16.996H19.3502L17.9958 13.9037L17.9959 9.50716L17.9921 9.28202C17.9884 9.17368 17.9818 9.06611 17.9725 8.95936C18.1435 8.98496 18.3185 8.99823 18.4966 8.99823C18.8347 8.99823 19.1616 8.95043 19.4709 8.86123C19.4816 8.98772 19.4892 9.11514 19.4936 9.24343L19.4978 9.49431V13.5902L20.8797 16.7453C20.9489 16.9032 20.9846 17.0737 20.9846 17.246C20.9846 17.9361 20.4241 18.4956 19.7329 18.4956L14.9917 18.4971C14.9917 20.1535 13.6467 21.4963 11.9876 21.4963C10.3878 21.4963 9.08004 20.2477 8.98867 18.6734L8.98312 18.4949L4.25202 18.4956C4.08044 18.4956 3.9107 18.4604 3.75334 18.3922C3.11928 18.1172 2.82853 17.3811 3.10394 16.7481L4.47746 13.5911V9.4942C4.47805 5.34053 7.8341 1.99634 11.9876 1.99634ZM13.4892 18.4949L10.4856 18.4971C10.4856 19.3253 11.1581 19.9967 11.9876 19.9967C12.7684 19.9967 13.41 19.402 13.4828 18.6415L13.4892 18.4949ZM16.033 5.0529C16.1282 4.52576 16.3889 4.05608 16.7595 3.69944C17.2097 3.26626 17.822 2.99985 18.4966 2.99985C19.8792 2.99985 21 4.11883 21 5.49917C21 6.59206 20.2974 7.52111 19.3185 7.86066C19.0611 7.94997 18.7845 7.9985 18.4966 7.9985C18.2482 7.9985 18.0083 7.96238 17.7818 7.89512C16.7475 7.588 15.9932 6.63152 15.9932 5.49917C15.9932 5.34685 16.0069 5.19771 16.033 5.0529Z" fill="#212121"/>
</svg>
