<svg width="18" height="20" viewBox="0 0 18 20" fill="none" xmlns="http://www.w3.org/2000/svg">
<path d="M8.97544 0C13.0253 0 16.3321 3.19475 16.4712 7.24906L16.4754 7.5V11.597L17.8554 14.753C17.9245 14.9109 17.9601 15.0814 17.9601 15.2538C17.9601 15.9441 17.4005 16.5038 16.7101 16.5038L11.9754 16.5053C11.9754 18.1621 10.6323 19.5053 8.97544 19.5053C7.37774 19.5053 6.07179 18.2563 5.98054 16.6815L5.975 16.503L1.25032 16.5038C1.07898 16.5038 0.909474 16.4685 0.752314 16.4003C0.119114 16.1252 -0.171236 15.389 0.103804 14.7558L1.47545 11.5979V7.4999C1.47605 3.34511 4.82754 0 8.97544 0ZM10.475 16.503L7.47544 16.5053C7.47544 17.3337 8.14705 18.0053 8.97544 18.0053C9.75515 18.0053 10.3959 17.4104 10.4685 16.6497L10.475 16.503ZM8.97544 1.5C5.65529 1.5 2.97593 4.17426 2.97545 7.5V11.9096L1.63147 15.0038H16.3279L14.9754 11.9106L14.9755 7.51286L14.9718 7.28766C14.8607 4.05418 12.217 1.5 8.97544 1.5Z" fill="#D9D9D9"/>
</svg>
